<?xml version="1.0" standalone="no"?><!-- Generator: Gravit.io --><svg xmlns="http://www.w3.org/2000/svg" xmlns:xlink="http://www.w3.org/1999/xlink" style="isolation:isolate" viewBox="0 0 474.824 94.807" width="474.824" height="94.807"><defs><clipPath id="_clipPath_FkJzoRAPu4fyyr4LtQXULZq9pEV7kQ4i"><rect width="474.824" height="94.807"/></clipPath></defs><g clip-path="url(#_clipPath_FkJzoRAPu4fyyr4LtQXULZq9pEV7kQ4i)"><path d=" M 170.215 48.883 L 170.215 48.883 L 170.215 48.883 Q 170.293 48.57 170.332 48.414 L 170.332 48.414 L 170.332 48.414 Q 170.371 48.258 170.059 48.023 L 170.059 48.023 L 170.059 48.023 Q 169.902 47.476 170.293 47.32 L 170.293 47.32 L 170.293 47.32 Q 170.684 47.164 171.074 47.008 L 171.074 47.008 L 171.074 47.008 Q 171.465 42.32 172.676 38.453 L 172.676 38.453 L 172.676 38.453 Q 173.887 34.586 175.332 30.914 L 175.332 30.914 L 175.332 30.914 Q 176.777 27.242 178.223 23.531 L 178.223 23.531 L 178.223 23.531 Q 179.668 19.82 180.605 15.445 L 180.605 15.445 L 180.605 15.445 Q 181.621 14.43 182.285 13.023 L 182.285 13.023 L 182.285 13.023 Q 182.949 11.617 183.613 10.172 L 183.613 10.172 L 183.613 10.172 Q 184.277 8.726 185.176 7.398 L 185.176 7.398 L 185.176 7.398 Q 186.074 6.07 187.637 5.211 L 187.637 5.211 L 187.637 5.211 Q 188.34 5.289 188.926 5.484 L 188.926 5.484 L 188.926 5.484 Q 189.512 5.68 190.059 5.914 L 190.059 5.914 L 190.059 5.914 Q 190.605 6.148 191.23 6.305 L 191.23 6.305 L 191.23 6.305 Q 191.855 6.461 192.559 6.461 L 192.559 6.461 L 192.559 6.461 Q 192.871 6.851 193.105 7.359 L 193.105 7.359 L 193.105 7.359 Q 193.34 7.867 193.73 8.258 L 193.73 8.258 L 195.137 8.023 L 195.137 8.023 Q 196.152 8.883 196.934 10.172 L 196.934 10.172 L 196.934 10.172 Q 197.715 11.461 198.027 12.828 L 198.027 12.828 L 198.027 12.828 Q 198.34 14.195 197.949 15.484 L 197.949 15.484 L 197.949 15.484 Q 197.559 16.773 196.152 17.476 L 196.152 17.476 L 196.152 17.476 Q 196.23 17.945 196.152 18.18 L 196.152 18.18 L 196.152 18.18 Q 196.074 18.414 195.957 18.609 L 195.957 18.609 L 195.957 18.609 Q 195.84 18.805 195.84 19 L 195.84 19 L 195.84 19 Q 195.84 19.195 196.152 19.508 L 196.152 19.508 L 196.152 19.508 Q 195.293 20.211 194.59 21.266 L 194.59 21.266 L 194.59 21.266 Q 193.887 22.32 193.418 23.492 L 193.418 23.492 L 193.418 23.492 Q 192.949 24.664 192.676 25.836 L 192.676 25.836 L 192.676 25.836 Q 192.402 27.008 192.324 28.023 L 192.324 28.023 L 192.324 28.023 Q 194.59 25.68 197.637 23.648 L 197.637 23.648 L 197.637 23.648 Q 200.684 21.617 202.949 19.82 L 202.949 19.82 L 202.949 19.82 Q 204.746 18.57 206.113 17.437 L 206.113 17.437 L 206.113 17.437 Q 207.48 16.305 208.887 15.328 L 208.887 15.328 L 208.887 15.328 Q 210.293 14.351 211.816 13.453 L 211.816 13.453 L 211.816 13.453 Q 213.34 12.555 214.902 11.461 L 214.902 11.461 L 214.902 11.461 Q 215.684 11.148 216.113 11.305 L 216.113 11.305 L 216.113 11.305 Q 216.543 11.461 216.934 11.695 L 216.934 11.695 L 216.934 11.695 Q 217.012 11.148 216.699 11.031 L 216.699 11.031 L 216.699 11.031 Q 216.387 10.914 216.465 10.289 L 216.465 10.289 L 216.465 10.289 Q 217.793 9.898 218.848 9.351 L 218.848 9.351 L 218.848 9.351 Q 219.902 8.805 221.074 8.336 L 221.074 8.336 L 221.074 8.336 Q 221.855 9.195 222.637 10.172 L 222.637 10.172 L 222.637 10.172 Q 223.418 11.148 224.746 11.226 L 224.746 11.226 L 224.746 11.226 Q 225.215 12.242 225.879 12.75 L 225.879 12.75 L 225.879 12.75 Q 226.543 13.258 227.207 13.726 L 227.207 13.726 L 227.207 13.726 Q 227.871 14.195 228.34 14.859 L 228.34 14.859 L 228.34 14.859 Q 228.809 15.523 228.887 16.93 L 228.887 16.93 L 228.887 16.93 Q 228.574 17.555 228.145 18.297 L 228.145 18.297 L 228.145 18.297 Q 227.715 19.039 227.402 20.133 L 227.402 20.133 L 227.402 20.133 Q 225.527 21.851 223.613 23.141 L 223.613 23.141 L 223.613 23.141 Q 221.699 24.43 219.707 25.601 L 219.707 25.601 L 219.707 25.601 Q 217.715 26.773 215.645 28.023 L 215.645 28.023 L 215.645 28.023 Q 213.574 29.273 211.465 30.914 L 211.465 30.914 L 211.465 30.914 Q 210.996 31.617 210.293 32.164 L 210.293 32.164 L 210.293 32.164 Q 209.59 32.711 208.848 33.219 L 208.848 33.219 L 208.848 33.219 Q 208.105 33.726 207.441 34.273 L 207.441 34.273 L 207.441 34.273 Q 206.777 34.82 206.387 35.601 L 206.387 35.601 L 206.387 35.601 Q 206.074 35.601 205.84 35.641 L 205.84 35.641 L 205.84 35.641 Q 205.605 35.68 205.293 35.758 L 205.293 35.758 L 205.293 35.758 Q 204.98 36.383 204.395 36.773 L 204.395 36.773 L 204.395 36.773 Q 203.809 37.164 203.574 37.789 L 203.574 37.789 L 203.574 37.789 Q 204.98 40.836 207.246 42.398 L 207.246 42.398 L 207.246 42.398 Q 209.512 43.961 212.324 44.664 L 212.324 44.664 L 212.324 44.664 Q 215.137 45.367 218.418 45.445 L 218.418 45.445 L 218.418 45.445 Q 221.699 45.523 225.215 45.523 L 225.215 45.523 L 225.215 45.523 Q 225.605 45.445 225.566 45.094 L 225.566 45.094 L 225.566 45.094 Q 225.527 44.742 225.996 44.82 L 225.996 44.82 L 225.996 44.82 Q 227.168 45.211 227.949 45.758 L 227.949 45.758 L 227.949 45.758 Q 228.73 46.305 229.434 46.93 L 229.434 46.93 L 229.434 46.93 Q 230.137 47.555 230.801 48.219 L 230.801 48.219 L 230.801 48.219 Q 231.465 48.883 232.324 49.586 L 232.324 49.586 L 232.324 49.586 Q 232.168 53.258 230.176 55.562 L 230.176 55.562 L 230.176 55.562 Q 228.184 57.867 224.902 59.273 L 224.902 59.273 L 224.902 59.273 Q 220.371 59.43 217.012 59.039 L 217.012 59.039 L 217.012 59.039 Q 213.652 58.648 210.371 57.32 L 210.371 57.32 L 210.371 57.32 Q 210.137 57.242 209.941 56.851 L 209.941 56.851 L 209.941 56.851 Q 209.746 56.461 209.59 56.305 L 209.59 56.305 L 209.59 56.305 Q 208.965 55.914 208.184 55.992 L 208.184 55.992 L 208.184 55.992 Q 207.402 56.07 206.855 55.836 L 206.855 55.836 L 206.855 55.836 Q 206.152 55.523 204.551 54.43 L 204.551 54.43 L 204.551 54.43 Q 202.949 53.336 201.621 52.398 L 201.621 52.398 L 201.621 52.398 Q 199.98 51.07 198.457 49.781 L 198.457 49.781 L 198.457 49.781 Q 196.934 48.492 195.762 46.93 L 195.762 46.93 L 195.762 46.93 Q 195.527 46.539 195.098 46.539 L 195.098 46.539 L 195.098 46.539 Q 194.668 46.539 194.277 46.305 L 194.277 46.305 L 194.277 46.305 Q 191.543 48.023 189.707 50.562 L 189.707 50.562 L 189.707 50.562 Q 187.871 53.101 186.152 55.719 L 186.152 55.719 L 186.152 55.719 Q 184.434 58.336 182.52 60.641 L 182.52 60.641 L 182.52 60.641 Q 180.605 62.945 177.715 64.195 L 177.715 64.195 L 177.715 64.195 Q 176.855 64.195 176.23 63.922 L 176.23 63.922 L 176.23 63.922 Q 175.605 63.648 175.059 63.219 L 175.059 63.219 L 175.059 63.219 Q 174.512 62.789 173.965 62.398 L 173.965 62.398 L 173.965 62.398 Q 173.418 62.008 172.715 61.851 L 172.715 61.851 L 172.715 61.851 Q 172.715 60.758 172.285 59.781 L 172.285 59.781 L 172.285 59.781 Q 171.855 58.805 171.426 57.984 L 171.426 57.984 L 171.426 57.984 Q 170.996 57.164 170.801 56.383 L 170.801 56.383 L 170.801 56.383 Q 170.605 55.601 171.23 54.82 L 171.23 54.82 L 171.23 54.82 Q 170.371 54.117 169.59 53.648 L 169.59 53.648 L 169.59 53.648 Q 170.137 53.101 170.098 52.633 L 170.098 52.633 L 170.098 52.633 Q 170.059 52.164 169.824 51.695 L 169.824 51.695 L 169.824 51.695 Q 169.59 51.226 169.473 50.719 L 169.473 50.719 L 169.473 50.719 Q 169.355 50.211 169.746 49.586 L 169.746 49.586 L 169.746 49.586 Q 170.059 49.508 170.02 49.273 L 170.02 49.273 L 170.02 49.273 Q 169.98 49.039 170.215 48.883 Z  M 232.09 64.117 L 232.09 64.117 L 232.09 64.117 Q 230.996 63.414 230.332 62.32 L 230.332 62.32 L 230.332 62.32 Q 229.668 61.226 229.238 59.976 L 229.238 59.976 L 229.238 59.976 Q 228.809 58.726 228.535 57.359 L 228.535 57.359 L 228.535 57.359 Q 228.262 55.992 227.949 54.742 L 227.949 54.742 L 227.949 54.742 Q 227.949 53.648 228.418 53.141 L 228.418 53.141 L 228.418 53.141 Q 228.887 52.633 229.434 52.164 L 229.434 52.164 L 229.434 52.164 Q 231.309 52.086 232.793 51.851 L 232.793 51.851 L 232.793 51.851 Q 234.277 51.617 235.684 51.383 L 235.684 51.383 L 235.684 51.383 Q 237.09 51.148 238.496 50.953 L 238.496 50.953 L 238.496 50.953 Q 239.902 50.758 241.543 50.758 L 241.543 50.758 L 241.543 50.758 Q 242.715 48.336 243.73 46.109 L 243.73 46.109 L 243.73 46.109 Q 244.746 43.883 245.684 41.851 L 245.684 41.851 L 245.684 41.851 Q 246.152 39.898 246.895 38.219 L 246.895 38.219 L 246.895 38.219 Q 247.637 36.539 248.34 35.016 L 248.34 35.016 L 248.34 35.016 Q 249.043 33.492 249.59 31.969 L 249.59 31.969 L 249.59 31.969 Q 250.137 30.445 250.293 28.726 L 250.293 28.726 L 250.293 28.726 Q 251.23 25.992 251.973 23.687 L 251.973 23.687 L 251.973 23.687 Q 252.715 21.383 253.105 18.18 L 253.105 18.18 L 253.105 18.18 Q 250.137 18.648 248.34 19.078 L 248.34 19.078 L 248.34 19.078 Q 246.543 19.508 245.762 19.898 L 245.762 19.898 L 245.762 19.898 Q 244.199 19.82 243.301 19.273 L 243.301 19.273 L 243.301 19.273 Q 242.402 18.726 241.855 17.945 L 241.855 17.945 L 241.855 17.945 Q 241.309 17.164 240.918 16.148 L 240.918 16.148 L 240.918 16.148 Q 240.527 15.133 239.98 14.039 L 239.98 14.039 L 239.98 14.039 Q 240.293 13.336 240.137 11.969 L 240.137 11.969 L 240.137 11.969 Q 239.98 10.601 239.199 9.976 L 239.199 9.976 L 239.199 9.976 Q 239.824 9.82 240.137 8.922 L 240.137 8.922 L 240.137 8.922 Q 240.449 8.023 240.215 7.555 L 240.215 7.555 L 240.215 7.555 Q 241.543 7.164 243.027 7.047 L 243.027 7.047 L 243.027 7.047 Q 244.512 6.93 245.957 6.812 L 245.957 6.812 L 245.957 6.812 Q 247.402 6.695 248.73 6.5 L 248.73 6.5 L 248.73 6.5 Q 250.059 6.305 250.996 5.68 L 250.996 5.68 L 250.996 5.68 Q 255.059 5.523 259.473 5.367 L 259.473 5.367 L 259.473 5.367 Q 263.887 5.211 267.637 4.976 L 267.637 4.976 L 267.637 4.976 Q 269.043 5.445 270.879 5.445 L 270.879 5.445 L 270.879 5.445 Q 272.715 5.445 274.551 5.68 L 274.551 5.68 L 274.551 5.68 Q 276.387 5.914 277.832 6.695 L 277.832 6.695 L 277.832 6.695 Q 279.277 7.476 279.824 9.43 L 279.824 9.43 L 279.824 9.43 Q 280.996 9.586 281.582 10.055 L 281.582 10.055 L 281.582 10.055 Q 282.168 10.523 282.324 11.187 L 282.324 11.187 L 282.324 11.187 Q 282.48 11.851 282.441 12.672 L 282.441 12.672 L 282.441 12.672 Q 282.402 13.492 282.402 14.273 L 282.402 14.273 L 282.402 14.273 Q 281.152 15.211 279.238 15.797 L 279.238 15.797 L 279.238 15.797 Q 277.324 16.383 275.059 16.734 L 275.059 16.734 L 275.059 16.734 Q 272.793 17.086 270.332 17.203 L 270.332 17.203 L 270.332 17.203 Q 267.871 17.32 265.527 17.398 L 265.527 17.398 L 265.527 17.398 Q 265.137 19.976 264.16 23.453 L 264.16 23.453 L 264.16 23.453 Q 263.184 26.93 262.168 30.25 L 262.168 30.25 L 262.168 30.25 Q 261.152 33.57 260.41 36.187 L 260.41 36.187 L 260.41 36.187 Q 259.668 38.805 259.746 39.586 L 259.746 39.586 L 259.746 39.586 Q 258.965 41.383 258.457 42.633 L 258.457 42.633 L 258.457 42.633 Q 257.949 43.883 257.52 44.976 L 257.52 44.976 L 257.52 44.976 Q 257.09 46.07 256.66 47.125 L 256.66 47.125 L 256.66 47.125 Q 256.23 48.18 255.605 49.508 L 255.605 49.508 L 260.918 49.508 L 260.918 49.508 Q 261.074 50.367 261.621 50.68 L 261.621 50.68 L 261.621 50.68 Q 262.168 50.992 262.793 51.226 L 262.793 51.226 L 262.793 51.226 Q 263.418 51.461 263.926 51.812 L 263.926 51.812 L 263.926 51.812 Q 264.434 52.164 264.434 52.945 L 264.434 52.945 L 264.434 52.945 Q 265.918 53.336 266.309 54.117 L 266.309 54.117 L 266.309 54.117 Q 266.699 54.898 266.504 55.797 L 266.504 55.797 L 266.504 55.797 Q 266.309 56.695 265.723 57.633 L 265.723 57.633 L 265.723 57.633 Q 265.137 58.57 264.59 59.273 L 264.59 59.273 L 264.59 59.273 Q 263.887 59.117 263.262 59.625 L 263.262 59.625 L 263.262 59.625 Q 262.637 60.133 262.09 60.758 L 262.09 60.758 L 262.09 60.758 Q 259.824 60.445 257.637 60.68 L 257.637 60.68 L 257.637 60.68 Q 255.449 60.914 253.574 61.07 L 253.574 61.07 L 253.574 61.07 Q 253.184 61.148 253.262 61.5 L 253.262 61.5 L 253.262 61.5 Q 253.34 61.851 253.105 62.008 L 253.105 62.008 L 253.105 62.008 Q 250.684 61.226 248.145 61.383 L 248.145 61.383 L 248.145 61.383 Q 245.605 61.539 242.988 62.125 L 242.988 62.125 L 242.988 62.125 Q 240.371 62.711 237.637 63.375 L 237.637 63.375 L 237.637 63.375 Q 234.902 64.039 232.09 64.117 Z  M 276.465 60.289 L 276.465 60.289 L 276.465 60.289 Q 276.152 59.976 275.918 59.547 L 275.918 59.547 L 275.918 59.547 Q 275.684 59.117 275.527 58.414 L 275.527 58.414 L 275.527 58.414 Q 274.434 57.086 273.809 55.367 L 273.809 55.367 L 273.809 55.367 Q 273.184 53.648 272.949 51.812 L 272.949 51.812 L 272.949 51.812 Q 272.715 49.976 272.871 48.101 L 272.871 48.101 L 272.871 48.101 Q 273.027 46.226 273.418 44.586 L 273.418 44.586 L 273.418 44.586 Q 273.652 43.805 273.809 42.945 L 273.809 42.945 L 273.809 42.945 Q 274.199 41.461 274.59 40.016 L 274.59 40.016 L 274.59 40.016 Q 274.98 38.57 275.762 37.633 L 275.762 37.633 L 275.762 37.633 Q 275.449 36.773 275.84 35.758 L 275.84 35.758 L 275.84 35.758 Q 276.23 34.742 276.621 33.883 L 276.621 33.883 L 276.621 33.883 Q 276.777 33.648 276.855 33.453 L 276.855 33.453 L 276.855 33.453 Q 276.934 33.258 277.012 33.101 L 277.012 33.101 L 277.012 33.101 Q 277.949 30.367 278.848 27.828 L 278.848 27.828 L 278.848 27.828 Q 279.746 25.289 280.605 22.945 L 280.605 22.945 L 280.605 22.945 Q 282.168 18.648 283.613 14.508 L 283.613 14.508 L 283.613 14.508 Q 285.059 10.367 286.23 5.68 L 286.23 5.68 L 286.23 5.68 Q 286.855 5.211 287.324 5.055 L 287.324 5.055 L 287.324 5.055 Q 287.48 4.976 287.715 4.898 L 287.715 4.898 L 287.715 4.898 Q 287.949 4.82 288.262 4.82 L 288.262 4.82 L 288.262 4.82 Q 289.902 5.68 292.129 6.422 L 292.129 6.422 L 292.129 6.422 Q 294.355 7.164 295.918 7.164 L 295.918 7.164 L 297.246 8.336 L 297.246 8.336 Q 298.262 9.508 299.004 10.797 L 299.004 10.797 L 299.004 10.797 Q 299.746 12.086 299.434 14.117 L 299.434 14.117 L 299.434 14.117 Q 298.965 14.82 298.652 14.976 L 298.652 14.976 L 298.652 14.976 Q 298.184 16.773 297.637 18.141 L 297.637 18.141 L 297.637 18.141 Q 297.09 19.508 296.543 20.758 L 296.543 20.758 L 296.543 20.758 Q 295.918 22.164 295.371 23.57 L 295.371 23.57 L 295.371 23.57 Q 294.824 24.976 294.434 27.008 L 294.434 27.008 L 294.434 27.008 Q 293.965 27.555 293.848 27.945 L 293.848 27.945 L 293.848 27.945 Q 293.73 28.336 293.574 28.726 L 293.574 28.726 L 293.574 28.726 Q 293.418 29.195 293.184 29.703 L 293.184 29.703 L 293.184 29.703 Q 292.949 30.211 292.48 30.601 L 292.48 30.601 L 292.48 30.601 Q 292.168 33.023 291.543 34.547 L 291.543 34.547 L 291.543 34.547 Q 290.918 36.07 290.293 37.555 L 290.293 37.555 L 290.293 37.555 Q 289.199 40.289 288.262 42.984 L 288.262 42.984 L 288.262 42.984 Q 287.324 45.68 287.168 49.117 L 287.168 49.117 L 287.168 49.117 Q 288.105 48.883 288.887 48.883 L 288.887 48.883 L 288.887 48.883 Q 289.902 48.883 290.84 49.195 L 290.84 49.195 L 290.84 49.195 Q 293.652 47.789 296.973 47.476 L 296.973 47.476 L 296.973 47.476 Q 300.293 47.164 303.574 47.086 L 303.574 47.086 L 303.574 47.086 Q 306.309 47.086 308.652 46.851 L 308.652 46.851 L 308.652 46.851 Q 309.434 47.398 309.668 47.437 L 309.668 47.437 L 309.668 47.437 Q 309.902 47.476 310.449 47.476 L 310.449 47.476 L 310.449 47.476 Q 310.684 47.476 310.918 47.476 L 310.918 47.476 L 310.918 47.476 Q 311.152 47.476 311.543 47.555 L 311.543 47.555 L 311.543 47.555 Q 312.637 48.648 313.652 49.078 L 313.652 49.078 L 313.652 49.078 Q 314.668 49.508 315.84 49.898 L 315.84 49.898 L 315.84 49.898 Q 316.855 50.289 317.832 50.719 L 317.832 50.719 L 317.832 50.719 Q 318.809 51.148 319.746 51.851 L 319.746 51.851 L 320.449 55.836 L 320.449 55.836 Q 321.074 56.695 320.996 57.008 L 320.996 57.008 L 320.996 57.008 Q 320.996 57.633 320.684 58.101 L 320.684 58.101 L 320.84 59.117 L 320.84 59.117 Q 319.355 59.43 318.887 59.781 L 318.887 59.781 L 318.887 59.781 Q 318.418 60.133 317.871 60.68 L 317.871 60.68 L 317.871 60.68 Q 317.012 60.758 316.23 60.758 L 316.23 60.758 L 316.23 60.758 Q 314.668 60.758 313.027 61.226 L 313.027 61.226 L 313.027 61.226 Q 310.684 60.367 307.871 60.367 L 307.871 60.367 L 307.871 60.367 Q 306.777 60.367 305.645 60.445 L 305.645 60.445 L 305.645 60.445 Q 304.512 60.523 303.418 60.68 L 303.418 60.68 L 303.418 60.68 Q 302.246 60.836 301.074 60.953 L 301.074 60.953 L 301.074 60.953 Q 299.902 61.07 298.73 61.07 L 298.73 61.07 L 298.73 61.07 Q 297.793 61.226 297.402 61.305 L 297.402 61.305 L 297.402 61.305 Q 297.012 61.383 296.621 61.539 L 296.621 61.539 L 296.621 61.539 Q 293.965 62.398 290.879 63.258 L 290.879 63.258 L 290.879 63.258 Q 287.793 64.117 284.668 64.117 L 284.668 64.117 L 284.668 64.117 Q 280.059 64.117 277.246 61.773 L 277.246 61.773 L 277.246 61.773 Q 276.934 61.07 276.777 60.836 L 276.777 60.836 L 276.777 60.836 Q 276.621 60.601 276.465 60.289 Z  M 327.09 60.289 L 327.09 60.289 L 327.09 60.289 Q 326.777 59.976 326.543 59.547 L 326.543 59.547 L 326.543 59.547 Q 326.309 59.117 326.152 58.414 L 326.152 58.414 L 326.152 58.414 Q 325.059 57.086 324.434 55.367 L 324.434 55.367 L 324.434 55.367 Q 323.809 53.648 323.574 51.812 L 323.574 51.812 L 323.574 51.812 Q 323.34 49.976 323.496 48.101 L 323.496 48.101 L 323.496 48.101 Q 323.652 46.226 324.043 44.586 L 324.043 44.586 L 324.043 44.586 Q 324.277 43.805 324.434 42.945 L 324.434 42.945 L 324.434 42.945 Q 324.824 41.461 325.215 40.016 L 325.215 40.016 L 325.215 40.016 Q 325.605 38.57 326.387 37.633 L 326.387 37.633 L 326.387 37.633 Q 326.074 36.773 326.465 35.758 L 326.465 35.758 L 326.465 35.758 Q 326.855 34.742 327.246 33.883 L 327.246 33.883 L 327.246 33.883 Q 327.402 33.648 327.48 33.453 L 327.48 33.453 L 327.48 33.453 Q 327.559 33.258 327.637 33.101 L 327.637 33.101 L 327.637 33.101 Q 328.574 30.367 329.473 27.828 L 329.473 27.828 L 329.473 27.828 Q 330.371 25.289 331.23 22.945 L 331.23 22.945 L 331.23 22.945 Q 332.793 18.648 334.238 14.508 L 334.238 14.508 L 334.238 14.508 Q 335.684 10.367 336.855 5.68 L 336.855 5.68 L 336.855 5.68 Q 337.48 5.211 337.949 5.055 L 337.949 5.055 L 337.949 5.055 Q 338.105 4.976 338.34 4.898 L 338.34 4.898 L 338.34 4.898 Q 338.574 4.82 338.887 4.82 L 338.887 4.82 L 338.887 4.82 Q 340.527 5.68 342.754 6.422 L 342.754 6.422 L 342.754 6.422 Q 344.98 7.164 346.543 7.164 L 346.543 7.164 L 347.871 8.336 L 347.871 8.336 Q 348.887 9.508 349.629 10.797 L 349.629 10.797 L 349.629 10.797 Q 350.371 12.086 350.059 14.117 L 350.059 14.117 L 350.059 14.117 Q 349.59 14.82 349.277 14.976 L 349.277 14.976 L 349.277 14.976 Q 348.809 16.773 348.262 18.141 L 348.262 18.141 L 348.262 18.141 Q 347.715 19.508 347.168 20.758 L 347.168 20.758 L 347.168 20.758 Q 346.543 22.164 345.996 23.57 L 345.996 23.57 L 345.996 23.57 Q 345.449 24.976 345.059 27.008 L 345.059 27.008 L 345.059 27.008 Q 344.59 27.555 344.473 27.945 L 344.473 27.945 L 344.473 27.945 Q 344.355 28.336 344.199 28.726 L 344.199 28.726 L 344.199 28.726 Q 344.043 29.195 343.809 29.703 L 343.809 29.703 L 343.809 29.703 Q 343.574 30.211 343.105 30.601 L 343.105 30.601 L 343.105 30.601 Q 342.793 33.023 342.168 34.547 L 342.168 34.547 L 342.168 34.547 Q 341.543 36.07 340.918 37.555 L 340.918 37.555 L 340.918 37.555 Q 339.824 40.289 338.887 42.984 L 338.887 42.984 L 338.887 42.984 Q 337.949 45.68 337.793 49.117 L 337.793 49.117 L 337.793 49.117 Q 338.73 48.883 339.512 48.883 L 339.512 48.883 L 339.512 48.883 Q 340.527 48.883 341.465 49.195 L 341.465 49.195 L 341.465 49.195 Q 344.277 47.789 347.598 47.476 L 347.598 47.476 L 347.598 47.476 Q 350.918 47.164 354.199 47.086 L 354.199 47.086 L 354.199 47.086 Q 356.934 47.086 359.277 46.851 L 359.277 46.851 L 359.277 46.851 Q 360.059 47.398 360.293 47.437 L 360.293 47.437 L 360.293 47.437 Q 360.527 47.476 361.074 47.476 L 361.074 47.476 L 361.074 47.476 Q 361.309 47.476 361.543 47.476 L 361.543 47.476 L 361.543 47.476 Q 361.777 47.476 362.168 47.555 L 362.168 47.555 L 362.168 47.555 Q 363.262 48.648 364.277 49.078 L 364.277 49.078 L 364.277 49.078 Q 365.293 49.508 366.465 49.898 L 366.465 49.898 L 366.465 49.898 Q 367.48 50.289 368.457 50.719 L 368.457 50.719 L 368.457 50.719 Q 369.434 51.148 370.371 51.851 L 370.371 51.851 L 371.074 55.836 L 371.074 55.836 Q 371.699 56.695 371.621 57.008 L 371.621 57.008 L 371.621 57.008 Q 371.621 57.633 371.309 58.101 L 371.309 58.101 L 371.465 59.117 L 371.465 59.117 Q 369.98 59.43 369.512 59.781 L 369.512 59.781 L 369.512 59.781 Q 369.043 60.133 368.496 60.68 L 368.496 60.68 L 368.496 60.68 Q 367.637 60.758 366.855 60.758 L 366.855 60.758 L 366.855 60.758 Q 365.293 60.758 363.652 61.226 L 363.652 61.226 L 363.652 61.226 Q 361.309 60.367 358.496 60.367 L 358.496 60.367 L 358.496 60.367 Q 357.402 60.367 356.27 60.445 L 356.27 60.445 L 356.27 60.445 Q 355.137 60.523 354.043 60.68 L 354.043 60.68 L 354.043 60.68 Q 352.871 60.836 351.699 60.953 L 351.699 60.953 L 351.699 60.953 Q 350.527 61.07 349.355 61.07 L 349.355 61.07 L 349.355 61.07 Q 348.418 61.226 348.027 61.305 L 348.027 61.305 L 348.027 61.305 Q 347.637 61.383 347.246 61.539 L 347.246 61.539 L 347.246 61.539 Q 344.59 62.398 341.504 63.258 L 341.504 63.258 L 341.504 63.258 Q 338.418 64.117 335.293 64.117 L 335.293 64.117 L 335.293 64.117 Q 330.684 64.117 327.871 61.773 L 327.871 61.773 L 327.871 61.773 Q 327.559 61.07 327.402 60.836 L 327.402 60.836 L 327.402 60.836 Q 327.246 60.601 327.09 60.289 Z  M 377.637 60.523 L 377.637 60.523 L 377.637 60.523 Q 377.012 59.898 376.738 59.039 L 376.738 59.039 L 376.738 59.039 Q 376.465 58.18 375.449 57.633 L 375.449 57.633 L 375.449 57.633 Q 375.293 56.461 375.02 54.937 L 375.02 54.937 L 375.02 54.937 Q 374.746 53.414 374.473 51.812 L 374.473 51.812 L 374.473 51.812 Q 374.199 50.211 374.082 48.609 L 374.082 48.609 L 374.082 48.609 Q 373.965 47.008 374.199 45.68 L 374.199 45.68 L 374.199 45.68 Q 374.355 44.976 374.707 44.351 L 374.707 44.351 L 374.707 44.351 Q 375.059 43.726 375.41 43.141 L 375.41 43.141 L 375.41 43.141 Q 375.762 42.555 375.957 41.93 L 375.957 41.93 L 375.957 41.93 Q 376.152 41.305 375.996 40.68 L 375.996 40.68 L 375.996 40.68 Q 376.465 40.601 376.582 40.172 L 376.582 40.172 L 376.582 40.172 Q 376.699 39.742 377.324 39.898 L 377.324 39.898 L 377.324 39.898 Q 377.871 38.18 378.496 36.695 L 378.496 36.695 L 378.496 36.695 Q 379.121 35.211 379.824 33.805 L 379.824 33.805 L 379.824 33.805 Q 380.527 32.398 381.27 30.953 L 381.27 30.953 L 381.27 30.953 Q 382.012 29.508 382.637 27.711 L 382.637 27.711 L 382.637 27.711 Q 381.309 26.461 380.723 25.016 L 380.723 25.016 L 380.723 25.016 Q 380.137 23.57 379.824 22.086 L 379.824 22.086 L 379.824 22.086 Q 379.512 20.601 379.355 19.078 L 379.355 19.078 L 379.355 19.078 Q 379.199 17.555 378.73 15.992 L 378.73 15.992 L 378.73 15.992 Q 379.668 14.586 380.996 13.687 L 380.996 13.687 L 380.996 13.687 Q 382.324 12.789 383.926 12.203 L 383.926 12.203 L 383.926 12.203 Q 385.527 11.617 387.402 11.266 L 387.402 11.266 L 387.402 11.266 Q 389.277 10.914 391.387 10.445 L 391.387 10.445 L 391.387 10.445 Q 395.137 9.273 398.105 8.609 L 398.105 8.609 L 398.105 8.609 Q 401.074 7.945 403.887 7.516 L 403.887 7.516 L 403.887 7.516 Q 406.699 7.086 409.746 6.734 L 409.746 6.734 L 409.746 6.734 Q 412.793 6.383 416.777 5.68 L 416.777 5.68 L 416.777 5.68 Q 416.855 5.914 417.051 5.914 L 417.051 5.914 L 417.051 5.914 Q 417.246 5.914 417.559 5.914 L 417.559 5.914 L 417.559 5.914 Q 417.793 6.461 418.418 6.461 L 418.418 6.461 L 418.418 6.461 Q 418.418 6.226 418.379 6.031 L 418.379 6.031 L 418.379 6.031 Q 418.34 5.836 418.34 5.68 L 418.34 5.68 L 418.34 5.68 Q 418.496 5.68 418.77 5.758 L 418.77 5.758 L 418.77 5.758 Q 419.043 5.836 419.238 5.914 L 419.238 5.914 L 419.238 5.914 Q 419.434 5.992 419.59 5.875 L 419.59 5.875 L 419.59 5.875 Q 419.746 5.758 419.668 5.367 L 419.668 5.367 L 419.668 5.367 Q 420.605 7.008 422.09 8.062 L 422.09 8.062 L 422.09 8.062 Q 423.574 9.117 425.371 9.898 L 425.371 9.898 L 425.371 9.898 Q 425.449 10.601 425.41 10.914 L 425.41 10.914 L 425.41 10.914 Q 425.371 11.226 425.293 11.5 L 425.293 11.5 L 425.293 11.5 Q 425.215 11.773 425.215 12.125 L 425.215 12.125 L 425.215 12.125 Q 425.215 12.476 425.371 13.101 L 425.371 13.101 L 425.371 13.101 Q 424.121 15.211 422.52 16.383 L 422.52 16.383 L 422.52 16.383 Q 420.918 17.555 419.121 18.18 L 419.121 18.18 L 419.121 18.18 Q 417.324 18.805 415.332 19.117 L 415.332 19.117 L 415.332 19.117 Q 413.34 19.43 411.27 19.781 L 411.27 19.781 L 411.27 19.781 Q 409.199 20.133 407.09 20.758 L 407.09 20.758 L 407.09 20.758 Q 404.98 21.383 402.949 22.633 L 402.949 22.633 L 402.949 22.633 Q 402.324 22.398 401.816 22.437 L 401.816 22.437 L 401.816 22.437 Q 401.309 22.476 400.762 22.633 L 400.762 22.633 L 400.762 22.633 Q 400.215 22.789 399.551 22.945 L 399.551 22.945 L 399.551 22.945 Q 398.887 23.101 397.949 22.945 L 397.949 22.945 L 397.949 22.945 Q 397.324 23.492 396.504 23.726 L 396.504 23.726 L 396.504 23.726 Q 395.684 23.961 394.824 24.195 L 394.824 24.195 L 394.824 24.195 Q 395.215 25.055 395.176 25.914 L 395.176 25.914 L 395.176 25.914 Q 395.137 26.773 395.371 27.398 L 395.371 27.398 L 395.371 27.398 Q 398.652 27.711 402.637 27.359 L 402.637 27.359 L 402.637 27.359 Q 406.621 27.008 410.449 26.851 L 410.449 26.851 L 410.449 26.851 Q 410.527 27.242 410.371 27.398 L 410.371 27.398 L 410.371 27.398 Q 410.215 27.555 410.215 27.945 L 410.215 27.945 L 410.215 27.945 Q 410.918 28.414 411.543 29.117 L 411.543 29.117 L 411.543 29.117 Q 412.168 29.82 412.832 30.484 L 412.832 30.484 L 412.832 30.484 Q 413.496 31.148 414.199 31.578 L 414.199 31.578 L 414.199 31.578 Q 414.902 32.008 415.84 31.93 L 415.84 31.93 L 415.84 31.93 Q 416.23 32.711 416.387 33.57 L 416.387 33.57 L 416.387 33.57 Q 416.543 34.43 416.152 35.367 L 416.152 35.367 L 416.152 35.367 Q 414.59 36.383 413.105 37.437 L 413.105 37.437 L 413.105 37.437 Q 411.621 38.492 410.02 39.351 L 410.02 39.351 L 410.02 39.351 Q 408.418 40.211 406.543 40.758 L 406.543 40.758 L 406.543 40.758 Q 404.668 41.305 402.48 41.226 L 402.48 41.226 L 402.48 41.226 Q 402.09 41.226 401.816 41.226 L 401.816 41.226 L 401.816 41.226 Q 401.543 41.226 401.152 40.914 L 401.152 40.914 L 401.152 40.914 Q 400.371 41.305 399.082 41.187 L 399.082 41.187 L 399.082 41.187 Q 397.793 41.07 396.934 41.461 L 396.934 41.461 L 396.934 41.461 Q 395.84 41.07 394.395 41.07 L 394.395 41.07 L 394.395 41.07 Q 392.949 41.07 391.855 40.68 L 391.855 40.68 L 391.855 40.68 Q 390.449 42.711 389.199 44.937 L 389.199 44.937 L 389.199 44.937 Q 387.949 47.164 387.012 49.664 L 387.012 49.664 L 387.012 49.664 Q 390.215 50.133 392.324 50.055 L 392.324 50.055 L 392.324 50.055 Q 394.434 49.976 396.309 49.742 L 396.309 49.742 L 396.309 49.742 Q 398.184 49.508 400.176 49.273 L 400.176 49.273 L 400.176 49.273 Q 402.168 49.039 405.059 49.117 L 405.059 49.117 L 405.059 49.117 Q 407.012 48.18 409.551 47.828 L 409.551 47.828 L 409.551 47.828 Q 412.09 47.476 414.277 46.773 L 414.277 46.773 L 414.277 46.773 Q 415.059 47.008 415.605 47.672 L 415.605 47.672 L 415.605 47.672 Q 416.152 48.336 416.66 49 L 416.66 49 L 416.66 49 Q 417.168 49.664 417.715 50.133 L 417.715 50.133 L 417.715 50.133 Q 418.262 50.601 419.121 50.445 L 419.121 50.445 L 419.121 50.445 Q 419.512 50.836 419.629 51.383 L 419.629 51.383 L 419.629 51.383 Q 419.746 51.93 419.863 52.398 L 419.863 52.398 L 419.863 52.398 Q 419.98 52.867 420.215 53.141 L 420.215 53.141 L 420.215 53.141 Q 420.449 53.414 421.074 53.336 L 421.074 53.336 L 421.074 53.336 Q 419.59 56.383 417.754 58.023 L 417.754 58.023 L 417.754 58.023 Q 415.918 59.664 413.613 60.562 L 413.613 60.562 L 413.613 60.562 Q 411.309 61.461 408.457 61.891 L 408.457 61.891 L 408.457 61.891 Q 405.605 62.32 402.09 62.945 L 402.09 62.945 L 402.09 62.945 Q 401.23 63.101 400.645 62.906 L 400.645 62.906 L 400.645 62.906 Q 400.059 62.711 399.434 62.711 L 399.434 62.711 L 399.434 62.711 Q 397.246 63.101 394.238 63.492 L 394.238 63.492 L 394.238 63.492 Q 391.23 63.883 388.184 63.805 L 388.184 63.805 L 388.184 63.805 Q 385.137 63.726 382.324 63.023 L 382.324 63.023 L 382.324 63.023 Q 379.512 62.32 377.637 60.523 Z  M 424.824 56.461 L 424.824 56.461 L 424.824 56.461 Q 424.434 56.539 424.121 55.875 L 424.121 55.875 L 424.121 55.875 Q 423.809 55.211 423.418 54.586 L 423.418 54.586 L 424.277 54.586 L 424.277 54.586 Q 423.73 52.867 424.004 51.422 L 424.004 51.422 L 424.004 51.422 Q 424.277 49.976 424.668 48.609 L 424.668 48.609 L 424.668 48.609 Q 425.059 47.242 425.332 45.953 L 425.332 45.953 L 425.332 45.953 Q 425.605 44.664 425.059 43.258 L 425.059 43.258 L 425.059 43.258 Q 425.449 43.492 425.645 43.062 L 425.645 43.062 L 425.645 43.062 Q 425.84 42.633 425.957 41.969 L 425.957 41.969 L 425.957 41.969 Q 426.074 41.305 426.035 40.562 L 426.035 40.562 L 426.035 40.562 Q 425.996 39.82 425.918 39.351 L 425.918 39.351 L 425.918 39.351 Q 426.934 36.93 427.52 34.351 L 427.52 34.351 L 427.52 34.351 Q 428.105 31.773 428.574 29.234 L 428.574 29.234 L 428.574 29.234 Q 429.043 26.695 429.629 24.312 L 429.629 24.312 L 429.629 24.312 Q 430.215 21.93 431.152 19.82 L 431.152 19.82 L 431.152 19.82 Q 432.246 19.664 433.457 20.094 L 433.457 20.094 L 433.457 20.094 Q 434.668 20.523 435.059 21.148 L 435.059 21.148 L 435.059 21.148 Q 437.48 19.273 439.355 16.617 L 439.355 16.617 L 439.355 16.617 Q 441.23 13.961 443.145 11.422 L 443.145 11.422 L 443.145 11.422 Q 445.059 8.883 447.48 6.93 L 447.48 6.93 L 447.48 6.93 Q 449.902 4.976 453.496 4.586 L 453.496 4.586 L 453.496 4.586 Q 455.371 5.914 457.715 7.437 L 457.715 7.437 L 457.715 7.437 Q 460.059 8.961 461.543 11.226 L 461.543 11.226 L 461.543 11.226 Q 462.168 11.617 462.754 12.047 L 462.754 12.047 L 462.754 12.047 Q 463.34 12.476 463.965 12.867 L 463.965 12.867 L 463.965 14.039 L 463.965 14.039 Q 465.059 15.055 465.801 16.422 L 465.801 16.422 L 465.801 16.422 Q 466.543 17.789 467.129 19.312 L 467.129 19.312 L 467.129 19.312 Q 467.715 20.836 468.262 22.398 L 468.262 22.398 L 468.262 22.398 Q 468.809 23.961 469.512 25.289 L 469.512 25.289 L 469.512 25.289 Q 469.355 25.758 469.395 26.109 L 469.395 26.109 L 469.395 26.109 Q 469.434 26.461 469.551 26.812 L 469.551 26.812 L 469.551 26.812 Q 469.668 27.164 469.746 27.594 L 469.746 27.594 L 469.746 27.594 Q 469.824 28.023 469.824 28.648 L 469.824 28.648 L 469.824 28.648 Q 469.512 32.789 467.129 35.328 L 467.129 35.328 L 467.129 35.328 Q 464.746 37.867 461.348 39.469 L 461.348 39.469 L 461.348 39.469 Q 457.949 41.07 454.121 42.203 L 454.121 42.203 L 454.121 42.203 Q 450.293 43.336 447.168 44.664 L 447.168 44.664 L 447.168 44.664 Q 447.168 44.976 447.52 44.976 L 447.52 44.976 L 447.52 44.976 Q 447.871 44.976 447.715 45.445 L 447.715 45.445 L 447.715 45.445 Q 450.059 46.851 451.348 47.711 L 451.348 47.711 L 451.348 47.711 Q 452.637 48.57 453.77 49.156 L 453.77 49.156 L 453.77 49.156 Q 454.902 49.742 456.27 50.133 L 456.27 50.133 L 456.27 50.133 Q 457.637 50.523 460.059 51.07 L 460.059 51.07 L 460.059 51.07 Q 462.48 51.617 463.848 51.969 L 463.848 51.969 L 463.848 51.969 Q 465.215 52.32 466.309 52.516 L 466.309 52.516 L 466.309 52.516 Q 467.402 52.711 468.652 52.867 L 468.652 52.867 L 468.652 52.867 Q 469.902 53.023 472.012 53.258 L 472.012 53.258 L 472.012 53.258 Q 472.871 54.117 473.418 55.289 L 473.418 55.289 L 473.418 55.289 Q 473.965 56.461 474.199 57.633 L 474.199 57.633 L 474.199 57.633 Q 474.434 58.805 474.316 59.859 L 474.316 59.859 L 474.316 59.859 Q 474.199 60.914 473.652 61.539 L 473.652 61.539 L 473.652 61.539 Q 473.73 61.851 474.082 61.812 L 474.082 61.812 L 474.082 61.812 Q 474.434 61.773 474.824 61.851 L 474.824 61.851 L 474.824 61.851 Q 474.277 62.242 473.887 62.789 L 473.887 62.789 L 473.887 62.789 Q 473.496 63.336 473.105 63.883 L 473.105 63.883 L 473.105 63.883 Q 472.715 64.43 472.207 64.898 L 472.207 64.898 L 472.207 64.898 Q 471.699 65.367 470.918 65.445 L 470.918 65.445 L 470.918 65.445 Q 468.105 66.539 463.73 65.523 L 463.73 65.523 L 463.73 65.523 Q 459.355 64.508 452.559 61.93 L 452.559 61.93 L 452.559 61.93 Q 449.199 60.68 447.09 59.664 L 447.09 59.664 L 447.09 59.664 Q 444.98 58.648 443.418 57.672 L 443.418 57.672 L 443.418 57.672 Q 441.855 56.695 440.527 55.562 L 440.527 55.562 L 440.527 55.562 Q 439.199 54.43 437.48 52.867 L 437.48 52.867 L 437.48 52.867 Q 437.246 52.945 437.207 53.18 L 437.207 53.18 L 437.207 53.18 Q 437.168 53.414 436.934 53.492 L 436.934 53.492 L 436.934 53.492 Q 436.543 56.617 435.723 58.57 L 435.723 58.57 L 435.723 58.57 Q 434.902 60.523 433.34 62.555 L 433.34 62.555 L 433.34 62.555 Q 432.09 62.32 431.66 62.789 L 431.66 62.789 L 431.66 62.789 Q 431.23 63.258 430.605 63.648 L 430.605 63.648 L 430.605 63.648 Q 429.824 63.805 429.434 63.609 L 429.434 63.609 L 429.434 63.609 Q 429.043 63.414 428.73 63.18 L 428.73 63.18 L 428.73 63.18 Q 428.418 62.945 428.027 62.711 L 428.027 62.711 L 428.027 62.711 Q 427.637 62.476 426.777 62.555 L 426.777 62.555 L 426.777 62.555 Q 426.543 61.851 426.309 61.187 L 426.309 61.187 L 426.309 61.187 Q 426.074 60.523 425.059 60.601 L 425.059 60.601 L 425.059 60.601 Q 425.293 59.898 425.215 59.391 L 425.215 59.391 L 425.215 59.391 Q 425.137 58.883 424.98 58.453 L 424.98 58.453 L 424.98 58.453 Q 424.824 58.023 424.707 57.555 L 424.707 57.555 L 424.707 57.555 Q 424.59 57.086 424.824 56.461 Z  M 450.918 20.758 L 450.918 20.758 L 450.918 20.758 Q 449.902 22.242 448.652 23.453 L 448.652 23.453 L 448.652 23.453 Q 447.402 24.664 446.191 25.953 L 446.191 25.953 L 446.191 25.953 Q 444.98 27.242 444.043 28.766 L 444.043 28.766 L 444.043 28.766 Q 443.105 30.289 442.715 32.398 L 442.715 32.398 L 442.715 32.398 Q 445.996 32.008 449.59 30.562 L 449.59 30.562 L 449.59 30.562 Q 453.184 29.117 456.387 27.789 L 456.387 27.789 L 456.387 27.789 Q 455.996 24.898 454.355 23.141 L 454.355 23.141 L 454.355 23.141 Q 452.715 21.383 450.918 20.758 Z  M 109.668 63.492 L 109.668 63.492 L 109.668 63.492 Q 106.23 63.961 103.418 63.18 L 103.418 63.18 L 103.418 63.18 Q 100.605 62.398 98.379 60.758 L 98.379 60.758 L 98.379 60.758 Q 96.152 59.117 94.551 56.851 L 94.551 56.851 L 94.551 56.851 Q 92.949 54.586 91.934 52.008 L 91.934 52.008 L 91.934 52.008 Q 91.23 46.695 92.324 42.359 L 92.324 42.359 L 92.324 42.359 Q 93.418 38.023 95.527 34.351 L 95.527 34.351 L 95.527 34.351 Q 97.637 30.68 100.332 27.476 L 100.332 27.476 L 100.332 27.476 Q 103.027 24.273 105.527 21.305 L 105.527 21.305 L 105.527 21.305 Q 106.074 21.539 106.426 21.305 L 106.426 21.305 L 106.426 21.305 Q 106.777 21.07 107.051 20.68 L 107.051 20.68 L 107.051 20.68 Q 107.324 20.289 107.676 19.898 L 107.676 19.898 L 107.676 19.898 Q 108.027 19.508 108.496 19.351 L 108.496 19.351 L 108.496 19.351 Q 108.809 18.648 109.316 18.18 L 109.316 18.18 L 109.316 18.18 Q 109.824 17.711 110.41 17.281 L 110.41 17.281 L 110.41 17.281 Q 110.996 16.851 111.504 16.383 L 111.504 16.383 L 111.504 16.383 Q 112.012 15.914 112.402 15.211 L 112.402 15.211 L 112.402 15.211 Q 113.184 15.055 113.77 14.664 L 113.77 14.664 L 113.77 14.664 Q 114.355 14.273 114.863 13.805 L 114.863 13.805 L 114.863 13.805 Q 115.371 13.336 115.918 12.945 L 115.918 12.945 L 115.918 12.945 Q 116.465 12.555 117.246 12.32 L 117.246 12.32 L 117.246 11.305 L 117.246 11.305 Q 118.965 10.523 119.746 9.586 L 119.746 9.586 L 119.746 9.586 Q 120.527 8.648 121.621 7.164 L 121.621 7.164 L 121.621 7.164 Q 122.48 7.086 122.988 7.086 L 122.988 7.086 L 122.988 7.086 Q 123.496 7.086 124.59 6.93 L 124.59 6.93 L 124.59 6.93 Q 125.293 5.601 125.918 4.976 L 125.918 4.976 L 125.918 4.976 Q 126.543 4.351 127.715 3.57 L 127.715 3.57 L 127.715 3.57 Q 128.887 4.195 130.215 4.312 L 130.215 4.312 L 130.215 4.312 Q 131.543 4.43 132.637 5.523 L 132.637 5.523 L 132.637 5.523 Q 132.715 6.461 133.184 6.969 L 133.184 6.969 L 133.184 6.969 Q 133.652 7.476 134.199 7.906 L 134.199 7.906 L 134.199 7.906 Q 134.746 8.336 135.293 8.805 L 135.293 8.805 L 135.293 8.805 Q 135.84 9.273 135.996 10.133 L 135.996 10.133 L 135.996 10.133 Q 136.387 10.133 136.504 9.976 L 136.504 9.976 L 136.504 9.976 Q 136.621 9.82 137.012 9.898 L 137.012 9.898 L 137.012 9.898 Q 137.168 10.523 137.324 10.914 L 137.324 10.914 L 137.324 10.914 Q 137.48 11.305 137.676 11.617 L 137.676 11.617 L 137.676 11.617 Q 137.871 11.93 138.066 12.32 L 138.066 12.32 L 138.066 12.32 Q 138.262 12.711 138.418 13.258 L 138.418 13.258 L 138.418 13.258 Q 138.027 14.195 137.715 15.25 L 137.715 15.25 L 137.715 15.25 Q 137.402 16.305 136.465 16.695 L 136.465 16.695 L 136.465 16.695 Q 136.465 17.32 136.934 17.359 L 136.934 17.359 L 136.934 17.359 Q 137.402 17.398 137.48 17.945 L 137.48 17.945 L 137.48 17.945 Q 137.559 18.648 137.246 19.117 L 137.246 19.117 L 137.246 19.117 Q 139.434 22.789 141.23 26.812 L 141.23 26.812 L 141.23 26.812 Q 143.027 30.836 145.293 34.508 L 145.293 34.508 L 145.293 34.508 Q 145.137 35.601 145.41 36.656 L 145.41 36.656 L 145.41 36.656 Q 145.684 37.711 146.113 38.726 L 146.113 38.726 L 146.113 38.726 Q 146.543 39.742 146.934 40.758 L 146.934 40.758 L 146.934 40.758 Q 147.324 41.773 147.48 42.789 L 147.48 42.789 L 147.48 42.789 Q 147.637 44.117 147.48 45.641 L 147.48 45.641 L 147.48 45.641 Q 147.324 47.164 146.855 48.57 L 146.855 48.57 L 146.855 48.57 Q 146.387 49.976 145.605 51.187 L 145.605 51.187 L 145.605 51.187 Q 144.824 52.398 143.809 53.023 L 143.809 53.023 L 143.809 53.023 Q 142.559 54.586 140.684 55.562 L 140.684 55.562 L 140.684 55.562 Q 138.809 56.539 137.246 57.867 L 137.246 57.867 L 137.246 57.867 Q 136.152 58.492 134.902 58.766 L 134.902 58.766 L 134.902 58.766 Q 133.652 59.039 132.324 59.351 L 132.324 59.351 L 132.324 59.351 Q 131.309 59.976 129.902 60.562 L 129.902 60.562 L 129.902 60.562 Q 128.496 61.148 127.012 61.617 L 127.012 61.617 L 127.012 61.617 Q 125.527 62.086 124.043 62.359 L 124.043 62.359 L 124.043 62.359 Q 122.559 62.633 121.387 62.476 L 121.387 62.476 L 121.387 62.476 Q 118.574 63.492 115.918 63.883 L 115.918 63.883 L 115.918 63.883 Q 113.262 64.273 109.668 63.492 Z  M 110.684 35.055 L 110.684 35.055 L 110.684 35.055 Q 109.902 36.851 108.848 38.297 L 108.848 38.297 L 108.848 38.297 Q 107.793 39.742 106.777 41.226 L 106.777 41.226 L 106.777 41.226 Q 105.762 42.711 105.02 44.391 L 105.02 44.391 L 105.02 44.391 Q 104.277 46.07 104.199 48.336 L 104.199 48.336 L 104.199 48.336 Q 105.762 49.664 107.91 49.937 L 107.91 49.937 L 107.91 49.937 Q 110.059 50.211 112.324 50.016 L 112.324 50.016 L 112.324 50.016 Q 114.59 49.82 116.855 49.43 L 116.855 49.43 L 116.855 49.43 Q 119.121 49.039 120.918 49.039 L 120.918 49.039 L 120.918 49.039 Q 120.918 48.336 121.543 48.336 L 121.543 48.336 L 121.543 48.336 Q 124.824 48.023 127.637 46.5 L 127.637 46.5 L 127.637 46.5 Q 130.449 44.976 133.496 43.414 L 133.496 43.414 L 133.496 43.414 Q 133.887 42.476 134.512 41.773 L 134.512 41.773 L 134.512 41.773 Q 135.137 41.07 135.215 39.742 L 135.215 39.742 L 135.215 39.742 Q 134.824 39.039 134.707 38.57 L 134.707 38.57 L 134.707 38.57 Q 134.59 38.101 134.59 37.164 L 134.59 37.164 L 134.59 37.164 Q 132.559 34.351 131.074 31.031 L 131.074 31.031 L 131.074 31.031 Q 129.59 27.711 127.637 24.742 L 127.637 24.742 L 127.637 24.742 Q 127.48 25.133 127.012 25.523 L 127.012 25.523 L 127.012 25.523 Q 126.543 25.914 125.996 25.367 L 125.996 25.367 L 125.996 25.367 Q 125.762 26.148 125.293 26.422 L 125.293 26.422 L 125.293 26.422 Q 124.824 26.695 124.238 26.695 L 124.238 26.695 L 124.238 26.695 Q 123.652 26.695 123.066 26.461 L 123.066 26.461 L 123.066 26.461 Q 122.48 26.226 122.012 25.836 L 122.012 25.836 L 122.012 25.836 Q 119.277 28.023 116.582 30.055 L 116.582 30.055 L 116.582 30.055 Q 113.887 32.086 111.699 34.82 L 111.699 34.82 L 111.699 34.82 Q 111.309 35.055 111.23 34.976 L 111.23 34.976 L 111.23 34.976 Q 111.152 34.898 110.684 35.055 Z  M 161.465 53.258 L 161.777 53.883 L 161.777 53.883 Q 161.934 54.508 162.012 55.055 L 162.012 55.055 L 162.012 55.055 Q 162.09 55.601 162.246 56.226 L 162.246 56.226 L 162.246 56.226 Q 161.934 57.008 161.699 57.75 L 161.699 57.75 L 161.699 57.75 Q 161.465 58.492 161.23 59.195 L 161.23 59.195 L 161.23 59.195 Q 160.996 59.742 160.918 59.898 L 160.918 59.898 L 160.918 59.898 Q 160.84 60.055 160.84 60.133 L 160.84 60.133 L 160.84 60.133 Q 160.84 60.211 160.879 60.328 L 160.879 60.328 L 160.879 60.328 Q 160.918 60.445 160.918 60.992 L 160.918 60.992 L 160.605 61.93 L 160.605 61.93 Q 160.215 62.476 159.668 62.789 L 159.668 62.789 L 159.668 62.789 Q 159.121 63.101 158.574 63.336 L 158.574 63.336 L 158.574 63.336 Q 158.418 63.492 158.105 63.609 L 158.105 63.609 L 158.105 63.609 Q 157.793 63.726 157.637 63.883 L 157.637 63.883 L 157.402 64.82 L 156.387 64.976 L 156.387 64.976 Q 155.059 65.289 154.121 65.289 L 154.121 65.289 L 153.184 65.289 L 153.184 65.289 Q 152.246 64.43 151.699 63.961 L 151.699 63.961 L 151.699 63.961 Q 151.152 63.492 150.527 63.101 L 150.527 63.101 L 150.527 63.101 Q 149.746 62.008 149.668 61.5 L 149.668 61.5 L 149.668 61.5 Q 149.59 60.992 149.434 60.523 L 149.434 60.523 L 149.434 60.523 Q 149.277 59.508 149.043 59.195 L 149.043 59.195 L 147.949 58.101 L 148.887 57.398 L 148.027 55.914 L 148.027 55.914 Q 148.965 55.211 149.434 54.898 L 149.434 54.898 L 149.434 54.898 Q 149.902 54.586 150.215 54.234 L 150.215 54.234 L 150.215 54.234 Q 150.527 53.883 150.918 53.336 L 150.918 53.336 L 150.918 53.336 Q 151.309 52.789 152.168 51.539 L 152.168 51.539 L 152.871 50.523 L 153.887 51.07 L 153.887 51.07 Q 154.199 51.305 155.254 51.5 L 155.254 51.5 L 155.254 51.5 Q 156.309 51.695 157.09 51.851 L 157.09 51.851 L 157.09 51.851 Q 158.418 52.242 159.59 52.437 L 159.59 52.437 L 159.59 52.437 Q 160.762 52.633 161.465 53.258 L 161.465 53.258 Z " fill="rgb(255,19,78)"/><path d=" M 69.665 38.501 L 104.184 10.02 C 104.632 9.687 105.032 9.278 105.375 8.803 C 107.168 6.322 106.631 2.848 104.148 1.053 C 102.739 0.035 101.025 -0.234 99.465 0.199 L 10.963 26.423 C 9.79 26.753 8.718 27.47 7.945 28.539 C 6.136 31.042 6.703 34.573 9.206 36.382 L 36.767 56.304 L 2.25 84.787 C 1.799 85.121 1.402 85.528 1.058 86.004 C -0.736 88.487 -0.197 91.959 2.284 93.752 C 3.695 94.772 5.406 95.041 6.968 94.607 L 95.469 68.381 C 96.643 68.053 97.715 67.339 98.49 66.267 C 100.299 63.764 99.73 60.233 97.229 58.425 L 69.665 38.501 Z " fill-rule="evenodd" fill="rgb(255,19,78)"/></g></svg>